<?xml version="1.0" encoding="UTF-8"?> <svg xmlns="http://www.w3.org/2000/svg" width="119" height="213" viewBox="0 0 119 213" fill="none"> <g opacity="0.3"> <path d="M106.308 180.059C105.566 180.83 104.741 181.538 104.107 182.387C102.619 184.377 100.689 185.86 98.7583 187.358C97.0638 188.674 95.3153 189.888 93.1885 190.447C92.6138 190.6 92.0832 190.948 91.5675 191.268C91.0272 191.602 90.6983 192.132 90.6393 192.766C90.5804 193.37 90.5558 193.984 90.5803 194.588C90.6933 197.638 90.8309 200.688 90.9586 203.739C90.9831 204.348 91.0223 204.957 90.9929 205.566C90.8897 207.678 89.6717 208.645 87.3681 208.38C86.7197 208.307 86.1745 208.4 85.6195 208.694C85.2462 208.891 84.8286 209.009 84.3325 209.2C83.3846 207.756 83.1636 205.949 81.7097 204.893C81.4199 204.682 81.3954 204.058 81.3315 203.611C81.2235 202.854 81.1793 202.093 81.1253 201.332C81.0614 200.418 81.0025 199.505 80.9583 198.586C80.8601 196.602 80.5162 194.652 80.1724 192.697C79.863 190.914 80.0496 189.048 79.8678 187.23C79.7156 185.727 79.5684 184.18 78.6548 182.869L78.7037 182.928C77.019 181.7 75.0839 181.331 73.0504 181.287C70.4423 181.228 67.8341 181.174 65.2259 181.081C64.6267 181.061 64.0128 180.929 63.443 180.742C63.2318 180.673 63.0991 180.295 62.996 180.035C62.9567 179.941 63.0796 179.73 63.1876 179.637C64.1503 178.802 65.2554 178.36 66.5472 178.448C67.3085 178.502 68.07 178.59 68.8313 178.561C69.2979 178.541 69.7153 178.252 69.848 177.755C69.9609 177.318 69.9903 176.857 70.0444 176.4C70.1475 175.54 70.6535 174.98 71.4443 174.774C72.3235 174.543 73.242 174.425 74.1457 174.293C74.8972 174.185 75.6831 174.209 76.4052 174.008C76.7785 173.905 77.1565 173.492 77.353 173.124C77.5593 172.741 77.6428 172.235 77.6182 171.793C77.5003 169.961 77.4119 168.119 77.1467 166.306C76.6801 163.123 75.8893 159.985 75.8696 156.738C75.8696 156.586 75.8549 156.429 75.8157 156.281C74.7449 152.102 74.7008 147.779 74.0819 143.54C73.4827 139.449 72.8932 135.357 72.3333 131.256C72.127 129.743 72.1957 128.196 72.1614 126.664C72.068 122.675 72.0534 118.692 71.2577 114.748C70.9581 113.269 70.231 112.208 69.0817 111.388C68.4628 110.946 67.7506 110.627 67.058 110.308C65.0982 109.394 63.0205 108.824 60.8987 108.466C59.047 108.151 57.3525 107.518 55.8299 106.422C55.7071 106.334 55.5891 106.231 55.4663 106.138C53.4132 104.556 51.262 104.487 49.0124 105.696C48.148 106.162 47.534 106.796 47.4897 107.817C47.4455 108.888 47.4455 109.964 47.4406 111.039C47.4357 113.186 47.5045 115.337 47.4358 117.484C47.3572 119.949 47.3326 122.376 48.1824 124.758C48.4771 125.583 48.4229 126.575 48.3639 127.479C48.2608 129.011 48.0741 130.529 48.4769 132.057C48.5899 132.484 48.5751 132.98 48.4966 133.422C48.138 135.411 48.3197 137.406 48.3836 139.395C48.4671 141.841 48.8404 144.287 48.4426 146.738C48.418 146.885 48.4231 147.047 48.4476 147.2C49.3219 153.59 48.9141 160.083 50.0487 166.449C50.2059 167.338 50.6233 168.178 50.9229 169.042L50.9819 168.988C50.8935 169.278 50.6528 169.622 50.7363 169.853C51.3454 171.635 51.2226 173.458 51.1882 175.295C51.1587 176.817 51.2473 178.369 51.488 179.872C52.0037 183.045 52.5243 186.233 53.3102 189.352C53.7572 191.13 54.2631 192.844 54.3319 194.706C54.3859 196.076 54.9409 197.363 55.7464 198.542C58.5756 202.687 58.7916 203.301 59.1649 207.805C59.2435 208.719 59.1992 209.642 59.2091 210.561L59.2633 210.507C58.8409 210.679 58.3202 210.753 58.0058 211.047C56.5078 212.442 54.6118 212.265 52.819 212.364C51.4879 212.437 50.1273 211.308 49.8768 209.927C49.6459 208.65 49.2727 207.594 48.084 206.897C47.7402 206.695 47.5439 206.19 47.3425 205.797C46.6254 204.402 46.3698 202.889 46.3354 201.342C46.2863 198.714 46.0703 196.135 44.9308 193.704C44.6803 193.169 44.6164 192.51 44.5919 191.906C44.4101 187.761 43.1722 183.748 43.0642 179.583C43.0347 178.379 42.5633 177.191 42.2785 175.992C41.748 173.743 41.4238 171.493 41.5319 169.155C41.6694 166.09 41.4531 163.035 40.8834 160C40.6034 158.502 40.4806 156.945 40.5248 155.422C40.5936 152.961 40.569 150.53 39.9943 148.113C39.5621 146.291 39.6163 144.444 40.1516 142.646C40.5593 141.271 40.5789 139.945 40.073 138.589C39.0808 135.942 38.9777 133.152 39.1693 130.406C39.3707 127.489 39.1643 124.596 39.1103 121.693C39.0759 120.008 39.1004 118.319 39.0513 116.634C38.9531 113.569 38.8941 110.499 38.6633 107.439C38.5699 106.241 38.1035 105.057 37.7056 103.903C37.573 103.51 37.1849 103.112 36.8067 102.915C35.8588 102.429 34.8764 101.963 33.8597 101.653C32.0964 101.118 30.3037 100.686 28.5158 100.258C25.9568 99.6443 23.5597 98.6816 21.3396 97.2425C19.1489 95.823 16.8356 94.6589 14.4289 93.6176C9.13893 91.3287 5.54353 87.193 2.87646 82.1929C2.51791 81.52 2.25259 80.7931 1.92841 80.0956C-0.0952209 75.7585 -0.497973 71.2692 0.587519 66.6178C0.798724 65.7239 1.00992 64.8152 1.06886 63.9065C1.35374 59.5056 2.80286 55.5566 5.2882 51.9072C6.66839 49.8786 7.86184 47.7273 9.4778 45.8608C9.98862 45.2665 10.5633 44.7803 11.3394 44.5838L11.2705 44.515C11.3049 45.4482 11.3443 46.3766 11.3787 47.3098L11.3444 47.295C12.4004 46.519 13.2255 45.3991 14.7776 45.3844C15.2491 45.3795 15.7158 44.7017 16.1775 44.3284C16.649 43.9452 17.1353 43.6063 17.7836 43.6456L17.7297 43.5867C18.0833 44.5494 18.1815 45.5219 17.9654 46.5436C17.8475 47.0937 17.8769 47.6782 17.8376 48.2479C16.3395 48.5868 15.3033 49.3875 15.0577 50.9985C14.7532 51.2981 14.4485 51.5928 14.1439 51.8924C13.8149 52.2264 13.4808 52.5604 13.1518 52.8944L13.1026 52.8404C13.4317 52.5064 13.7657 52.1724 14.0948 51.8433C14.3944 51.5437 14.6991 51.2392 14.9987 50.9396C16.3642 50.4631 17.2089 49.466 17.7738 48.1841C20.5145 46.8137 22.214 44.6181 22.9409 41.6515C23.0834 41.0621 23.2159 40.4727 23.3534 39.8833L23.2944 39.9864C23.2944 39.6377 23.2944 39.2889 23.2944 38.9402L23.3585 38.9844C25.2004 37.3684 27.3713 36.2535 29.4785 35.0501C31.2025 34.0628 32.9904 33.1886 34.5818 32.3536C35.2105 31.5333 35.1171 30.7573 35.1711 30.0009C35.3774 27.2601 35.6968 24.5243 35.7999 21.7786C36.0111 16.2726 36.1092 10.7616 36.2664 5.25064C36.286 4.48932 36.2614 3.70344 36.4431 2.97159C36.5807 2.41657 36.9 1.77315 37.342 1.45388C38.1721 0.854652 39.1497 0.461703 40.0289 0C41.3305 1.38511 41.3598 3.19755 42.2243 4.61704C45.0485 5.30468 45.967 7.54441 46.3894 10.0003C46.6448 11.4885 46.5222 13.0554 46.4534 14.5829C46.2815 18.2667 47.1459 18.6253 50.2452 18.8463C51.758 18.9544 53.3151 18.8561 54.823 18.6499C57.4459 18.2962 60.0098 18.5074 62.5787 19.0182C63.4775 19.1951 64.3811 19.3768 65.2897 19.4947C67.3477 19.7648 68.227 19.0968 68.3989 17.1665C68.4284 16.862 68.453 16.5525 68.4382 16.248C68.34 14.2195 68.8851 12.3088 69.4647 10.3981L69.4059 10.4522C70.1771 9.97574 70.9236 9.46 71.7194 9.03268C72.294 8.72324 73.2223 8.81164 73.4826 9.81854C73.7282 10.7616 74.0082 11.4984 75.2214 11.5033C76.022 11.5082 76.6409 12.132 76.8373 12.8835C77.1419 14.0525 77.3923 15.192 78.2322 16.1498C78.4729 16.4248 78.4532 17.029 78.3746 17.4514C78.2371 18.1882 77.9622 18.9003 77.746 19.6224L77.6918 19.5683C78.4875 20.31 79.0131 21.2187 79.1752 22.2894C79.411 23.871 80.2755 25.0547 81.415 26.0911C82.417 26.9998 83.4092 27.9183 84.421 28.8122C86.2285 30.4036 86.2334 30.3987 86.479 33.0363C86.5232 33.5029 86.3072 33.6355 85.5655 33.5815C85.4181 33.5717 85.2758 33.498 85.1333 33.4587L85.1873 33.4292C84.4554 34.721 84.3229 34.7849 83.3209 34.3232C82.6775 34.0236 82.0389 33.7141 81.4004 33.4096L81.4495 33.4587C81.253 33.2377 81.0958 32.9135 80.8502 32.83C80.6341 32.7563 80.1086 32.9037 80.089 33.0216C79.7599 34.775 79.475 36.5384 79.2196 38.3066C79.0329 39.5787 79.4701 40.674 80.3444 41.5925C81.0664 42.3538 81.8865 43.0317 82.5398 43.8421C82.8885 44.2793 82.9819 44.9227 83.1931 45.4777L83.247 45.4286C82.579 45.0553 81.9211 44.6624 81.2433 44.3038C80.0644 43.6849 78.7626 44.1908 78.3058 45.4728C78.1044 46.0426 77.9424 46.6467 77.8736 47.2459C77.6379 49.3776 77.417 51.5142 77.2549 53.6557C77.1861 54.5693 77.1272 55.5222 77.3139 56.4063C77.8247 58.8475 77.5496 61.2788 77.5398 63.7297C77.5201 71.0826 77.2107 78.4551 78.419 85.7687C78.6646 87.2716 78.6202 88.8237 78.7135 90.3562C78.8019 91.8936 79.6075 92.9496 80.9926 93.5242C81.8325 93.873 82.7166 94.1677 83.6056 94.3544C85.7618 94.7964 87.6135 95.818 89.3572 97.1197C92.1765 99.2268 95.0255 101.295 97.8743 103.362C99.004 104.183 99.9372 105.175 100.792 106.275C101.637 107.361 102.501 108.466 103.523 109.369C108.68 113.918 112.384 119.498 115.252 125.672C115.763 126.767 116.082 127.985 116.293 129.179C116.809 132.042 117.177 134.935 117.659 137.803C118.744 144.258 118.459 150.633 116.637 156.92C115.787 159.862 114.667 162.721 114.309 165.81C114.117 167.48 113.351 169.022 112.334 170.422C111.436 171.66 110.694 172.986 110.085 174.416C109.181 176.542 107.653 178.296 106.268 180.123L106.308 180.059ZM97.1081 117.297L97.0687 117.346C96.4498 117.081 95.826 116.821 95.2072 116.555C94.8732 116.226 94.5391 115.897 94.2051 115.563C94.0332 113.947 93.0214 113.156 91.5332 112.822C91.2139 112.488 90.8947 112.154 90.5803 111.825C88.9791 110.278 87.4222 108.657 85.1136 108.166C84.6176 107.572 83.9249 107.424 83.2128 107.316L83.2569 107.267C83.8954 107.547 84.5291 107.827 85.1676 108.107C86.4201 110.185 88.2473 111.393 90.6393 111.766C90.9586 112.1 91.2729 112.434 91.5922 112.768C92.0539 114.1 93.159 114.807 94.2641 115.514C94.5981 115.843 94.932 116.172 95.2611 116.501C95.8751 116.771 96.4941 117.032 97.1081 117.297ZM69.4304 102.572L69.3714 102.626C69.3714 102.326 69.3715 102.026 69.3764 101.727C69.3764 101.413 69.3812 101.098 69.3812 100.784C68.9834 100.013 68.2713 99.9095 67.5149 99.9046C66.2968 98.6521 64.7446 98.0332 63.1188 97.547C61.9449 97.1982 60.7661 96.8691 59.5873 96.54C58.3888 96.2011 57.2592 95.71 56.4733 94.7031C55.8594 93.9172 55.0389 93.6078 54.1155 93.4211C53.2167 93.2394 52.3278 92.9987 51.429 92.8317C51.1441 92.7777 50.7463 92.7777 50.5449 92.9398C50.2208 93.1952 49.9358 93.5783 49.8032 93.9663C49.7393 94.1579 49.9898 94.6441 50.1912 94.7129C52.5046 95.4988 54.8378 96.2208 57.1561 96.9723C59.7593 97.8171 62.4607 98.4115 64.8233 99.8948C64.558 99.9439 64.2978 99.9979 64.0325 100.037C63.674 100.091 63.5216 100.239 63.6493 100.46C63.7033 100.553 63.8654 100.597 63.9882 100.627C64.2485 100.686 64.5187 100.715 64.7839 100.759C65.5305 101.594 66.4933 101.781 67.5542 101.678C68.0552 102.247 68.6887 102.527 69.4304 102.572ZM16.8257 53.7982C16.2167 54.4122 16.374 55.0261 16.8209 55.6401C15.2639 57.3543 13.8641 59.206 12.8915 61.2984C11.8699 63.4939 11.698 65.7484 13.5252 67.7377C15.4997 69.889 17.5085 71.9961 19.9152 73.6808C24.6649 77.011 30.0334 78.7596 35.6426 79.904C36.2615 80.0317 37.2587 79.3637 37.4061 78.6958C37.5338 78.1063 37.6958 77.4776 37.6222 76.898C37.1555 73.2388 36.7478 69.5796 36.8902 65.8762C36.9098 65.4194 36.8461 64.9527 36.7528 64.5058C36.0455 61.0184 36.2125 57.4722 35.9963 53.9455C35.7458 49.8099 35.348 45.6889 35.0042 41.5581C34.96 41.0031 34.1545 40.674 33.5503 40.9245C32.1161 41.5139 30.8291 42.2949 29.6552 43.3313C28.1621 44.6476 26.6985 46.0819 24.9843 47.0396C23.2112 48.0269 22.1747 49.8934 20.2296 50.6056C19.876 50.7333 19.4438 51.2637 19.4389 51.6174C19.3898 53.5575 18.1421 54.6479 16.7718 55.6843C16.7816 55.0458 16.7962 54.4072 16.8061 53.7687L16.9241 53.6705L16.8257 53.7982ZM95.2957 186.587C95.3988 186.494 95.5069 186.4 95.6101 186.302C95.5266 186.415 95.438 186.523 95.3496 186.636C95.3545 186.597 95.1729 186.754 95.2957 186.587ZM69.3863 106.3L69.3371 106.349C68.5414 105.622 67.6032 105.332 66.5373 105.484C65.8399 104.674 64.9019 104.507 63.8999 104.497C63.7869 104.428 63.669 104.36 63.556 104.291C63.6886 104.34 63.8211 104.389 63.9587 104.443C64.7249 105.062 65.6681 105.219 66.5915 105.425C67.3823 106.162 68.4187 106.128 69.3863 106.3ZM103.547 179.244C101.352 179.981 99.505 181.287 97.7712 182.775C97.7073 182.829 97.727 183.065 97.7909 183.153C97.8645 183.247 98.0658 183.345 98.164 183.311C100.404 182.544 102.01 180.948 103.493 179.195L103.547 179.244ZM27.9117 88.8188C27.4745 88.2147 26.9931 87.6351 26.6149 86.9966C25.9125 85.8178 24.8369 85.4838 23.5647 85.5083C23.103 85.5181 22.5038 85.9209 22.5922 86.2254C22.6659 86.4906 22.774 86.8246 22.9803 86.9573C24.5029 87.9396 26.1041 88.7304 27.9755 88.7501C29.4195 89.7962 31.1827 90.3808 32.0816 92.1932C32.6022 93.2394 33.899 93.1215 34.9747 93.0822C35.0189 93.0822 35.1071 92.8366 35.0826 92.817C34.9696 92.7187 34.7832 92.6942 34.6948 92.5861C34.2675 92.0655 34.3017 91.7609 34.8027 91.5841C35.23 91.4368 35.6721 91.3386 36.0995 91.2256C36.1388 90.9211 36.2074 90.6362 36.2074 90.3513C36.2074 90.0517 36.2074 89.7177 36.0846 89.4574C35.9667 89.2118 35.7114 89.0006 35.4757 88.8434C35.2252 88.6764 34.9305 88.5782 34.6456 88.475C33.4766 88.0575 32.3027 87.9347 31.0649 88.254C30.0286 88.5192 28.9628 88.6371 27.9117 88.8188ZM45.4071 136.713C45.9424 135.583 46.08 134.385 46.1438 133.147C46.3354 129.336 45.7411 125.524 46.2028 121.698C46.3453 120.539 45.8542 119.301 45.6332 118.103C45.6136 117.994 45.3727 117.813 45.3138 117.842C45.078 117.955 44.7145 118.107 44.69 118.289C44.3854 120.244 44.1253 122.209 43.8748 124.178C43.639 126.02 43.9679 127.833 44.2086 129.65C45.5643 131.86 45.5153 134.311 45.4613 136.767L45.4071 136.713ZM68.1533 55.9986C68.114 55.9986 68.0748 55.9986 68.0356 56.0035C67.8931 50.6399 67.7507 45.2763 67.6034 39.9078C67.5886 39.2938 67.5591 38.6799 67.5149 38.0708C67.4216 36.838 66.7928 35.9686 65.6974 35.7083C62.2494 34.888 58.772 34.3969 55.2159 34.8242C54.9261 34.8586 54.5478 34.9224 54.3808 35.1189C53.6735 35.9637 52.7601 35.7672 51.8465 35.8016C50.9378 35.8409 50.0339 36.0816 49.1302 36.2535C48.1282 36.445 47.4898 37.0787 47.254 38.0463C46.2127 42.3833 45.4072 46.7744 45.5939 51.2441C45.7412 54.756 46.0604 58.2482 45.8836 61.7797C45.7854 63.7444 46.306 65.7386 46.4484 67.7278C46.5908 69.6876 46.1341 71.7211 47.2737 73.5532C47.3817 73.7251 47.2392 74.172 47.0722 74.3636C45.9032 75.7192 46.424 77.2763 46.4928 78.7744C46.6008 81.0387 47.8189 82.4974 49.931 83.1359C52.1265 83.799 54.3513 84.3934 56.5911 84.8944C59.5823 85.5623 62.5637 86.2352 65.4224 87.3944C66.2623 87.7333 67.1908 87.8856 68.0946 88.028C68.3156 88.0624 68.6889 87.8021 68.8313 87.5761C69.0671 87.1979 69.293 86.7461 69.3127 86.3188C69.3716 84.9435 69.4109 83.5584 69.3225 82.188C69.0622 78.0572 68.6447 73.9314 68.4629 69.7957C68.2616 65.2032 68.2466 60.6009 68.1533 55.9986ZM106.239 151.163C106.17 150.736 106.052 149.194 105.659 147.73C105.065 145.515 104.294 143.349 103.557 141.173C103.017 139.567 102.236 138.059 101.185 136.733C99.2839 134.341 97.27 132.032 95.3937 129.616C92.9133 126.428 89.8485 123.908 86.538 121.678C85.0301 120.662 83.3306 119.925 81.6901 119.119C81.5476 119.05 81.037 119.33 80.9878 119.522C80.5654 121.172 80.5702 122.867 80.8797 124.517C81.3119 126.791 81.2973 129.085 81.4888 131.374C81.8523 135.642 82.1665 139.925 82.7755 144.164C83.8659 151.738 85.1479 159.282 86.3759 166.837C86.5232 167.736 86.7884 168.62 87.0635 169.489C87.3091 170.275 88.65 170.761 89.3965 170.334C91.1255 169.352 92.7907 168.251 94.5589 167.357C96.2289 166.513 97.668 165.452 98.8763 164.012C99.9569 162.721 101.234 161.601 102.295 160.294C103.351 158.993 104.269 157.573 105.207 156.183C106.008 155.009 106.317 153.678 106.239 151.163ZM48.1725 27.4025C48.1332 27.8102 48.089 28.267 48.0498 28.7189C48.0105 29.1757 47.9564 29.6325 47.9368 30.0893C47.8778 31.4154 48.482 32.0834 49.8082 32.1325C50.7267 32.1669 51.645 32.2013 52.5586 32.1767C55.9427 32.0883 59.278 32.4567 62.5787 33.1787C63.6249 33.4047 64.6858 33.5668 65.7418 33.724C66.0365 33.7682 66.3703 33.7485 66.6405 33.6404C66.9008 33.5373 67.2202 33.3212 67.3086 33.0805C67.8636 31.5874 67.7211 30.0696 67.2741 28.5814C67.1955 28.321 66.9057 28.1049 66.67 27.9183C66.3163 27.6334 65.9137 27.4026 65.5502 27.1226C65.447 27.044 65.3438 26.877 65.3487 26.7591C65.3635 26.4398 65.6042 26.3122 65.9824 26.322C66.6356 26.3367 67.1956 26.1893 67.2103 25.3789C67.2201 24.7011 66.8665 24.2198 66.2968 23.9005C66.0365 23.7531 65.7418 23.65 65.4471 23.5861C65.0001 23.4879 64.5433 23.4339 64.0865 23.3651C62.6916 23.1539 61.4537 22.6382 60.4173 21.6411C59.2582 20.5212 57.7944 20.1283 56.2227 20.0546C54.9997 19.9957 53.7767 19.9465 52.5586 19.8434C51.4632 19.7501 50.427 19.9514 49.4005 20.2904C47.9417 20.7668 46.9691 21.1057 47.9318 23.2865C48.5457 24.6716 47.9368 26.0125 48.1725 27.4025ZM45.9721 158.207C45.5251 159.759 45.5251 160.677 46.0359 161.453C46.2127 161.724 46.8169 161.802 47.2295 161.807C47.6176 161.812 47.9859 161.075 47.7747 160.751C47.308 160.009 46.7727 159.317 45.9721 158.207ZM74.74 72.9441C74.7056 72.6445 74.7302 72.3203 74.6271 72.0452C74.5337 71.7948 74.3127 71.5934 74.1457 71.3723C73.9542 71.5786 73.6348 71.7653 73.5955 71.9961C73.4973 72.5757 73.4825 73.1848 73.5365 73.7693C73.5513 73.9019 73.9787 74.0247 74.2292 74.0885C74.3078 74.1082 74.4993 73.9363 74.5386 73.8184C74.6417 73.5384 74.6811 73.2388 74.74 72.9441ZM51.4731 99.4134C51.2373 99.5509 50.8642 99.6492 50.7905 99.8505C50.7169 100.052 50.8689 100.484 51.0555 100.602C51.5516 100.916 52.1018 101.162 52.6617 101.329C52.8631 101.388 53.1627 101.152 53.3985 101.02C53.423 101.005 53.3444 100.73 53.256 100.622C52.7796 100.052 52.3277 99.438 51.4731 99.4134ZM59.3712 99.3349C58.7523 98.716 58.1237 98.1364 57.1561 98.2837C57.0382 98.3034 56.8809 98.4311 56.8465 98.5392C56.8121 98.6423 56.8761 98.8437 56.9645 98.9075C57.6914 99.4233 58.4773 99.6836 59.3712 99.3349ZM43.9434 111.953C44.6654 111.482 44.5131 110.647 44.7833 109.998C44.9306 109.64 44.7195 109.409 44.3609 109.473C44.2381 109.492 44.0908 109.635 44.0417 109.753C43.7716 110.465 43.5406 111.182 43.9434 111.953ZM43.9335 78.2095C43.8107 78.2586 43.6144 78.2782 43.5702 78.3666C43.4032 78.7252 43.2707 79.0985 43.1675 79.4816C43.1479 79.5455 43.3442 79.7518 43.4376 79.7469C43.9386 79.7321 44.1645 79.3785 44.1842 78.9413C44.194 78.7007 44.0219 78.4551 43.9335 78.2095ZM46.5417 150.427C46.9346 150.358 47.1705 149.827 46.9348 149.341C46.8365 149.14 46.5024 148.929 46.2863 148.938C45.8639 148.958 45.6282 149.543 45.8738 149.994C45.9867 150.201 46.3108 150.289 46.5417 150.427ZM77.4611 175.953C77.2106 176.056 76.8815 176.095 76.7244 176.277C76.4935 176.537 76.6163 176.852 76.9503 176.994C77.4316 177.196 77.9867 176.96 77.9425 176.552C77.9179 176.336 77.6281 176.149 77.4611 175.953ZM74.2047 83.6026C74.0721 83.9611 73.8658 84.3295 73.8363 84.7077C73.8167 84.9189 74.0918 85.1547 74.2342 85.3806C74.4405 85.2283 74.8038 85.0957 74.8235 84.9238C74.8628 84.5309 74.7498 84.1183 74.6614 83.7204C74.6515 83.6664 74.4356 83.6566 74.2047 83.6026ZM78.3157 139.208C78.463 138.805 78.3452 138.638 77.9866 138.776C77.9326 138.796 77.9278 139.046 77.972 139.164C77.9916 139.218 78.1929 139.198 78.3157 139.208Z" fill="white"></path> <path d="M23.8301 163.865C22.9754 162.323 22.2975 160.982 22.995 159.371C23.3241 158.61 22.9409 157.892 22.6805 157.18C22.4644 156.586 22.4203 155.879 22.8427 155.441C23.879 154.371 25.0186 153.393 26.1483 152.411C26.4921 152.111 27.5876 152.327 27.8283 152.676C28.0002 152.927 28.2112 153.158 28.3389 153.433C29.39 155.663 30.8735 157.558 32.8333 159.233C32.8333 159.774 32.8086 160.363 32.8381 160.952C32.9609 163.364 31.5806 164.921 29.8026 166.213C29.5079 166.429 28.8743 166.434 28.5207 166.267C26.8801 165.491 25.2839 164.622 23.8301 163.865Z" fill="white"></path> <path d="M92.4911 45.3697C91.3417 45.0995 90.428 44.4463 89.6618 43.5769L89.7306 43.6456C88.6844 42.2458 88.213 40.7281 88.827 39.0041L88.7778 39.0532C89.5293 39.9668 90.2611 40.9 91.0519 41.7743C91.1648 41.8971 91.5922 41.7694 91.8575 41.7006C91.9655 41.6711 92.0784 41.4894 92.098 41.3666C92.1422 41.0768 92.1915 40.7723 92.1325 40.4923C91.8919 39.3233 91.5872 38.174 91.0224 37.0983C90.7031 36.4893 91.0569 36.1798 92.0196 36.1995C92.1669 36.2044 92.3142 36.2535 92.4616 36.2879L92.4076 36.2191C92.7416 36.5531 93.0706 36.8822 93.4046 37.2162L93.3506 37.1916C94.1807 38.4294 95.0254 39.6622 95.831 40.9147C96.2337 41.5385 96.6021 42.1918 96.9164 42.8598C97.3487 43.7783 96.7053 44.7606 95.718 44.7262C95.4233 44.7164 95.1286 44.6133 94.8388 44.5445C93.8368 44.3038 93.1148 44.8195 92.4321 45.4335L92.4911 45.3697Z" fill="white"></path> <path d="M25.9716 173.561C27.4746 175.275 28.8156 177.092 29.6211 179.254L29.675 179.2C27.6514 178.954 26.0108 177.972 24.5914 176.567C23.8595 175.845 24.1445 174.578 25.2005 173.983C25.4608 173.836 25.7554 173.757 26.0354 173.649L25.9716 173.561Z" fill="white"></path> <path d="M26.0353 173.644C26.2268 173.237 26.3645 172.79 26.6248 172.441C26.7771 172.235 27.1895 172.019 27.386 172.092C28.0835 172.343 28.8203 172.613 29.39 173.065C30.9274 174.288 32.3812 175.614 33.4029 177.333L33.4571 177.284C31.851 177.343 30.6425 176.419 29.3999 175.604C28.2849 174.872 27.3518 173.851 25.9716 173.561L26.0353 173.644Z" fill="white"></path> <path d="M18.7219 42.7124C18.8692 41.9462 19.2769 41.3371 19.9695 40.9982C20.7554 40.6102 21.5755 40.3008 22.381 39.9569L22.3417 39.8931C21.4526 41.2684 20.2003 42.1623 18.6531 42.6682L18.7219 42.7124Z" fill="white"></path> <path d="M92.4271 45.4335C93.0018 46.0769 93.5816 46.7106 94.1366 47.3687C94.2054 47.4522 94.1906 47.6782 94.1268 47.7862C93.9107 48.13 93.5913 48.1546 93.4342 47.796C93.0805 47.0053 92.8054 46.185 92.4959 45.3746C92.491 45.3697 92.4271 45.4335 92.4271 45.4335Z" fill="white"></path> <path d="M92.3337 57.0792C92.2207 57.0792 92.0194 57.1431 91.931 57.0694C91.5479 56.7452 91.5233 56.2982 91.6461 55.8464C91.7493 55.4632 92.0195 55.3307 92.3289 55.5566C92.7268 55.8464 92.8396 56.2835 92.6726 56.7501C92.6284 56.8729 92.4663 56.9564 92.3337 57.0792Z" fill="white"></path> <path d="M23.4715 169.43C23.2505 169.469 23.0294 169.514 22.8084 169.553C22.8428 169.332 22.8477 169.096 22.9213 168.89C22.9459 168.826 23.167 168.772 23.2751 168.806C23.5943 168.905 23.6532 169.131 23.4715 169.43Z" fill="white"></path> <path d="M25.6228 167.087C25.554 167.171 25.4951 167.318 25.4165 167.328C25.3232 167.338 25.1513 167.259 25.1218 167.181C25.0088 166.886 25.1463 166.729 25.4607 166.793C25.5343 166.807 25.5688 166.984 25.6228 167.087Z" fill="white"></path> <path d="M33.8451 180.884C33.796 180.992 33.7518 181.1 33.7027 181.204C33.5946 181.14 33.3981 181.081 33.3981 181.017C33.3981 180.639 33.5701 180.594 33.8451 180.884Z" fill="white"></path> <path d="M29.6211 179.254C29.7684 179.288 29.9204 179.317 30.0678 179.352C29.9401 179.303 29.8075 179.249 29.6798 179.2C29.6748 179.2 29.6211 179.254 29.6211 179.254Z" fill="white"></path> <path d="M78.6498 182.874C78.4484 182.967 78.2521 183.065 78.0507 183.158C78.1293 183.085 78.203 182.977 78.2963 182.947C78.4191 182.908 78.5614 182.932 78.699 182.932C78.699 182.937 78.6498 182.874 78.6498 182.874Z" fill="white"></path> <path d="M29.7781 31.6217C29.8665 31.5628 29.9549 31.5039 30.0433 31.4498C29.9402 31.494 29.8371 31.5333 29.734 31.5775L29.7781 31.6217Z" fill="white"></path> <path d="M92.4566 36.2829C92.8987 35.5806 92.8988 35.5806 93.3507 36.2289L93.4047 36.2044C93.0707 36.2093 92.7366 36.2093 92.4026 36.2142L92.4566 36.2829Z" fill="white"></path> <path d="M17.7592 43.6505C18.0785 43.3411 18.4026 43.0268 18.7219 42.7173L18.6531 42.6731C18.3338 42.9826 18.0195 43.2871 17.7002 43.5965C17.7051 43.5916 17.7592 43.6505 17.7592 43.6505Z" fill="white"></path> <path d="M11.3198 44.5887L11.4181 44.4021L11.2512 44.5199L11.3198 44.5887Z" fill="white"></path> <path d="M89.6618 43.5769L89.4851 43.7979L89.7257 43.6456L89.6618 43.5769Z" fill="white"></path> <path d="M83.1538 45.4826C83.4633 45.7872 83.7677 46.0917 84.0772 46.3962H84.1215C83.817 46.0769 83.5124 45.7528 83.2128 45.4335C83.2079 45.4286 83.1538 45.4826 83.1538 45.4826Z" fill="white"></path> <path d="M37.067 164.43L37.1996 164.518L37.0965 164.42L37.067 164.43Z" fill="white"></path> <path d="M16.8407 40.9245C17.155 40.6151 17.4644 40.3106 17.7787 40.0011L17.7689 39.952C17.4447 40.2566 17.1207 40.5611 16.7916 40.8656C16.7867 40.8705 16.8407 40.9245 16.8407 40.9245Z" fill="white"></path> <path d="M84.0772 46.3962C84.0772 46.3962 84.1215 46.3913 84.1215 46.3962H84.0772Z" fill="white"></path> <path d="M22.381 39.9569C22.7003 39.6377 23.0146 39.3135 23.3338 38.9942C23.3338 38.9942 23.27 38.9451 23.27 38.95C23.27 39.2987 23.27 39.6475 23.27 39.9962L23.329 39.8931C23 39.8931 22.6758 39.893 22.3467 39.898L22.381 39.9569Z" fill="white"></path> <path d="M17.7787 40.0011L17.764 39.952C17.764 39.9569 17.7787 40.0011 17.7787 40.0011Z" fill="white"></path> <path d="M88.827 39.0041C88.5224 38.6995 88.213 38.395 87.9085 38.0905L87.8545 38.1396C88.159 38.4441 88.4684 38.7487 88.7778 39.0532L88.827 39.0041Z" fill="white"></path> <path d="M86.9163 37.2064C87.2306 37.5207 87.5401 37.8302 87.8545 38.1445C87.8545 38.1445 87.9085 38.0905 87.9085 38.0954C87.5941 37.7859 87.2798 37.4765 86.9654 37.1671L86.9163 37.2064Z" fill="white"></path> <path d="M93.3555 36.224C93.3555 36.5433 93.3507 36.8625 93.3507 37.1818L93.4047 37.2064C93.4047 36.8724 93.4096 36.5335 93.4145 36.1995L93.3555 36.224Z" fill="white"></path> <path d="M86.9604 37.1622L86.9112 37.2064C86.9162 37.2064 86.9604 37.1622 86.9604 37.1622Z" fill="white"></path> <path d="M81.3709 33.4145L81.4201 33.4636C81.4152 33.4636 81.3709 33.4145 81.3709 33.4145Z" fill="white"></path> <path d="M60.3733 25.7817C60.388 25.6589 60.3732 25.4477 60.4174 25.433C60.5451 25.3937 60.7023 25.4378 60.8448 25.4477C60.83 25.5705 60.8449 25.7817 60.8006 25.7964C60.6729 25.8357 60.5157 25.7915 60.3733 25.7817Z" fill="white"></path> <path d="M67.5886 99.8358C67.5886 100.165 67.5886 100.494 67.5886 100.828C66.6406 100.828 65.6977 100.828 64.7497 100.828C64.7497 100.499 64.7497 100.165 64.7497 99.8358C65.6977 99.8358 66.6455 99.8358 67.5886 99.8358Z" fill="white"></path> <path d="M69.4305 100.754C69.4305 101.083 69.4305 101.417 69.4305 101.746C68.7919 101.746 68.1583 101.746 67.5197 101.746C67.5197 101.417 67.5197 101.083 67.5197 100.754C68.1583 100.754 68.7919 100.754 69.4305 100.754Z" fill="white"></path> </g> </svg> 