<?xml version="1.0" encoding="UTF-8"?> <svg xmlns="http://www.w3.org/2000/svg" width="83" height="148" viewBox="0 0 83 148" fill="none"> <g opacity="0.3"> <path d="M37.2451 61.5074C36.6823 61.1342 36.3355 60.5897 36.4754 59.9351C36.9957 57.5154 37.0808 54.9458 38.7602 52.9024C39.5116 50.1768 41.1149 47.8274 42.1189 45.1997C43.0073 42.8749 44.1907 40.6632 45.289 38.4271C45.5719 37.852 46.0739 37.436 46.8102 37.6807C47.7168 37.9805 48.3374 37.5614 48.7116 36.815C50.5218 33.1839 52.2834 29.5284 54.0905 25.8943C54.5712 24.9276 54.8481 23.8202 55.7821 23.1381C55.8946 23.0555 56.0924 23.031 56.2323 23.0647C56.354 23.0953 56.5305 23.2299 56.5426 23.3369C56.5974 23.7866 56.7068 24.2669 56.6034 24.689C56.1105 26.6927 54.9546 28.3721 53.8928 30.1004C53.7255 30.3727 54.0662 30.7398 54.4313 30.6847C54.8633 30.6174 55.5082 30.5287 55.6512 30.2412C56.211 29.1338 56.6308 27.9499 57.0597 26.7783C58.1428 23.8417 59.4388 21.0426 61.0908 18.3538C62.7185 15.7077 64.1485 12.924 65.7457 10.2443C66.9474 8.22538 67.857 6.07488 68.1642 3.69496C68.289 2.72831 68.8549 1.95742 69.7068 1.45574C70.51 0.984647 71.3253 0.528858 72.1619 0.122008C72.9194 -0.248134 74.2399 0.271897 74.5623 1.03665C74.8057 1.61175 75.0127 2.19907 75.2195 2.78947C75.6059 3.89377 75.4598 4.96139 74.8817 5.9464C74.4893 6.61632 74.0421 7.27094 73.5249 7.8491C72.4296 9.07577 72.1923 10.2749 73.3606 11.5933C73.5461 11.8044 73.6557 12.1776 73.6314 12.4621C73.4914 14.322 73.4792 16.2002 72.0737 17.7206C70.5981 19.3143 69.7586 21.4342 67.994 22.7894C67.8419 22.9056 67.4463 22.7435 67.1847 22.6486C67.0873 22.6119 66.9869 22.3825 67.0112 22.2632C67.0964 21.8105 67.1634 21.3333 67.3641 20.9325C67.784 20.0974 68.3499 19.3327 68.7424 18.4853C69.1349 17.638 69.4359 16.7417 69.6732 15.8393C69.7858 15.4141 69.6733 14.9216 69.6247 14.4627C69.5821 14.0681 68.9493 13.5114 68.6359 13.6031C68.353 13.6857 68.0852 13.8448 67.8327 14.0038C67.7079 14.0803 67.6107 14.2241 67.5377 14.3556C66.5459 16.1207 65.5175 17.8674 64.5804 19.663C63.4274 21.8778 62.3504 24.1353 61.2429 26.3746C60.8261 27.2158 60.4794 28.0968 59.9896 28.8891C57.431 33.0218 55.5873 37.5124 53.6615 41.948C51.7965 46.2398 50.242 50.6693 48.6448 55.0712C47.8964 57.133 47.1449 59.1673 45.9249 61.0118C44.4525 63.2419 43.3115 65.6065 43.1077 68.3566C43.0012 69.7882 42.4414 71.0974 41.4131 72.1344C40.181 73.3795 39.4538 74.9212 38.6597 76.4507C36.4236 80.7609 34.8843 85.3555 33.1472 89.8676C32.8155 90.7272 32.7607 91.6938 32.569 92.6085C32.1522 94.5938 31.8602 96.6188 31.273 98.5552C30.8228 100.042 30.1535 101.428 30.3725 103.064C30.4486 103.639 30.2326 104.318 29.974 104.863C28.3128 108.378 26.8435 111.987 25.015 115.423C24.2027 116.949 23.5881 118.524 23.2321 120.234C22.9127 121.761 22.4046 123.248 21.9452 124.74C21.3489 126.677 20.7223 128.558 20.9718 130.69C21.1117 131.877 20.637 133.153 20.3602 134.367C19.7334 137.108 19.1159 139.84 19.1859 142.688C19.2132 143.764 18.9424 144.857 18.7508 145.933C18.4861 147.432 18.2124 147.607 16.5726 147.457C16.2653 147.429 15.8545 147.227 15.675 147.359C14.0048 148.576 12.4501 147.799 10.8712 147.163C10.0832 146.848 9.64822 146.34 9.50523 145.456C9.41092 144.872 9.06706 144.309 8.74762 143.789C8.31561 143.082 8.2121 142.345 8.29424 141.547C8.52546 139.231 9.13095 136.958 8.89974 134.581C8.80847 133.657 9.33172 132.764 10.0862 132.128C10.8742 131.464 11.2636 130.727 10.8224 129.669C10.6521 129.259 10.5608 128.72 10.6703 128.301C11.2149 126.187 11.8143 124.083 12.444 121.993C12.7209 121.07 13.2806 120.394 14.2451 119.987C14.7623 119.77 15.3374 119.216 15.4895 118.696C16.0493 116.799 17.3665 115.481 18.623 114.101L18.5743 114.135C18.5743 113.78 18.5743 113.425 18.5743 113.07L18.6261 113.104C18.7144 111.844 18.5531 110.605 18.1332 109.427C17.7347 108.313 17.8472 107.316 18.4526 106.316C18.8725 105.622 18.772 104.826 18.7964 104.049C18.8146 103.447 18.8603 102.715 19.1949 102.278C19.989 101.244 20.3085 100.106 20.5154 98.858C20.6128 98.283 20.9747 97.6773 21.3823 97.2429C23.0678 95.4472 23.4633 93.1224 24.0444 90.8832C24.3577 89.6841 24.4096 88.4176 24.7169 87.2154C24.9025 86.4843 25.1914 85.6645 25.7025 85.1597C26.5239 84.3522 26.9377 83.4528 27.2237 82.3638C27.6526 80.7211 28.0421 79.0387 29.0522 77.6132C29.18 75.3801 30.5611 73.56 31.06 71.4492C31.5224 69.4884 32.5569 68.0751 34.5679 67.5C34.8387 67.4235 35.1581 67.1941 35.2737 66.9494C35.4623 66.5548 35.584 66.0898 35.5779 65.6554C35.5749 65.3893 35.2312 65.1476 35.1247 64.8631C34.6014 63.4468 34.7808 62.9084 36.0038 62.162C36.3993 61.9204 36.8162 61.7093 37.2238 61.4829C37.2086 61.4799 37.2451 61.5074 37.2451 61.5074ZM27.1871 98.7418C27.1871 98.6103 27.251 98.3839 27.175 98.3166C26.965 98.1269 26.6152 97.8241 26.4631 97.8914C25.9185 98.133 25.4014 98.4696 24.9451 98.858C24.8051 98.9774 24.8659 99.372 24.9024 99.632C24.9115 99.7085 25.1549 99.7941 25.2918 99.8033C26.1254 99.843 26.7916 99.5586 27.1871 98.7418ZM36.162 74.7836C35.9734 74.493 35.9157 74.3002 35.8031 74.2574C35.6936 74.2146 35.4836 74.2819 35.3892 74.3736C34.9238 74.8202 34.6866 75.3892 34.7961 76.0224C34.8326 76.2274 35.1399 76.411 35.3589 76.5456C35.4228 76.5853 35.6905 76.4599 35.7239 76.3651C35.9034 75.8022 36.0434 75.2271 36.162 74.7836ZM34.1815 80.7211C34.1085 80.6569 34.0111 80.5162 33.8803 80.4703C33.7525 80.4274 33.5639 80.4336 33.4483 80.5009C32.7455 80.9077 32.5813 81.6664 32.3166 82.3485C32.1888 82.682 32.3379 82.9481 32.6725 83.046C32.8003 83.0827 32.9889 83.0704 33.0984 83.0001C33.9077 82.4892 34.4036 81.804 34.1815 80.7211ZM20.4606 119.225C20.491 119.112 20.5732 118.971 20.5337 118.889C20.4941 118.8 20.3237 118.69 20.2385 118.711C19.9251 118.785 19.8795 118.999 20.1259 119.234C20.1837 119.289 20.348 119.231 20.4606 119.225ZM38.7267 66.1632L38.5534 66.3835L38.8058 66.4355L38.7267 66.1632Z" fill="white"></path> <path d="M48.4439 109.43C49.9073 110.094 51.4071 110.247 52.983 109.864C53.4455 109.751 54.0479 110.03 54.0083 110.531C53.914 111.737 54.6502 112.156 55.5386 112.535C55.6511 112.584 55.6999 112.783 55.8825 113.086C55.2223 114.502 54.1087 115.909 54.2121 117.714C53.5885 118.968 52.9617 120.222 52.338 121.476C51.331 123.498 50.9143 125.597 51.5471 127.827C51.7449 128.531 52.9405 129.467 53.6585 129.461C53.9658 129.457 54.2822 129.47 54.5834 129.408C56.716 128.986 58.867 128.638 60.9662 128.09C62.7733 127.619 64.3827 126.637 65.986 125.673C67.7536 124.612 69.2292 123.297 70.2575 121.47C71.018 120.121 71.7604 118.754 73.0899 117.806C74.5776 116.741 75.0795 115.132 75.4051 113.376C75.7458 111.529 75.3685 109.981 74.1272 108.616C73.6039 108.041 73.1112 107.429 72.527 106.925C72.0646 106.527 71.5169 106.093 70.945 105.983C68.9857 105.597 67.1664 104.539 65.049 104.832C64.1941 104.949 63.6708 104.263 63.5461 103.388C63.2723 101.495 63.9719 99.9868 65.4383 98.8917C66.0255 98.4543 66.8378 98.1973 67.574 98.1117C68.6449 97.9893 69.7433 98.1361 70.8294 98.1025C73.8687 98.0046 76.1838 99.4148 78.1339 101.596C78.7576 102.293 79.2962 103.067 79.9442 103.734C82.2655 106.114 83.1691 108.971 82.9743 112.26C82.6884 117.136 81.59 121.84 79.789 126.34C78.7454 128.947 77.1391 131.287 74.6414 132.813L74.6718 132.868C74.3219 132.871 73.969 132.871 73.6192 132.874L73.6709 132.828C72.317 133.862 70.948 134.881 69.6125 135.939C68.645 136.707 67.5071 137.377 66.8135 138.353C65.2467 140.562 63.0592 140.913 60.671 140.871C59.1255 140.843 57.5801 140.696 56.0346 140.644C55.2618 140.62 54.4798 140.626 53.7132 140.721C50.7195 141.085 48.7086 139.519 47.0414 137.307C46.576 136.689 46.1713 136.001 45.8823 135.285C45.3773 134.031 44.3185 133.401 43.2293 132.685C43.0011 131.993 42.8156 131.232 42.5053 130.525C41.0936 127.31 41.5682 124.129 42.633 120.959C43.0255 119.785 43.5275 118.647 43.926 117.475C44.5345 115.689 45.4563 114.074 46.4876 112.514C47.1722 111.477 47.8325 110.424 48.5048 109.378L48.4439 109.43Z" fill="white"></path> <path d="M13.8375 21.9542C14.5798 21.7462 15.3342 21.5688 16.0644 21.321C17.5308 20.8194 18.9972 20.3085 20.4423 19.7426C26.4814 17.3657 33.7404 21.5474 36.2047 25.8362C37.2877 27.7175 38.1214 29.7548 38.955 31.7707C39.6303 33.4072 39.5817 35.1172 39.0858 36.8241C38.739 38.0172 38.3769 39.2163 38.1609 40.4369C37.8719 42.0887 37.0078 43.3735 35.6935 44.2606C31.9575 46.7843 28.5866 49.7975 24.805 52.2722C22.5689 53.7344 20.3664 54.3279 17.7712 53.6855C15.2218 53.0553 12.7119 52.1743 10.0072 52.3579C9.44743 52.3946 8.79025 52.0734 8.29131 51.743C7.13218 50.966 6.01267 50.1217 4.93568 49.2316C4.08687 48.531 3.4905 47.6378 3.18931 46.5304C2.94593 45.6342 2.62647 44.7348 2.18229 43.9211C0.636782 41.1037 0.271732 38.0111 0.00704962 34.8939C-0.0477123 34.2454 0.216917 33.5724 0.788875 33.3002C2.01798 32.7159 2.55949 31.7248 3.05235 30.5164C3.93462 28.3568 4.86567 26.2063 6.18604 24.2516C7.26911 22.6486 8.52865 21.37 10.4697 20.8744C11.212 20.6848 11.9055 20.3024 12.6296 20.0271C13.162 19.8252 13.6701 20.2534 13.8496 21.0763C13.9135 21.3761 13.8892 21.6973 13.9045 22.0124C12.9887 23.2788 12.0729 24.5452 11.1572 25.8117C10.8286 26.1359 10.497 26.4602 10.1684 26.7875L10.1106 26.7324C10.4422 26.4082 10.7768 26.087 11.1084 25.7627C12.7878 25.518 13.7401 24.582 13.8436 22.8475C13.8588 22.5446 13.8405 22.2479 13.8375 21.9542ZM14.8201 30.443L14.8962 30.5226C13.9226 29.5773 12.946 28.6352 12.0272 27.745C10.9502 28.3446 10.0254 28.8952 9.06704 29.3846C8.30646 29.7731 7.87456 30.4216 7.73766 31.1956C7.33607 33.5174 7.40299 35.8606 7.73156 38.1824C7.81371 38.7636 8.1513 39.3754 8.54072 39.8312C9.1431 40.5317 9.83066 41.1863 10.5821 41.7216C13.0129 43.45 15.6628 43.9853 18.5165 42.9116C21.8722 41.6482 25.1793 40.3176 27.525 37.3656C27.9935 36.7783 28.6992 36.3684 29.3351 35.9309C30.2812 35.2824 30.6645 34.1628 30.1413 33.0646C29.7397 32.2234 29.2834 31.3913 28.7266 30.6511C27.248 28.6841 25.3284 27.488 22.7911 27.5278C21.8632 27.5431 20.9291 27.5553 20.0043 27.644C18.5744 27.7817 17.3149 28.2711 16.3201 29.406C15.9306 29.8465 15.3282 30.1004 14.8201 30.443Z" fill="white"></path> <path d="M60.5949 13.6062C60.5828 15.1479 59.8495 16.3226 58.7391 17.3076L58.7969 17.3688C58.8121 15.824 59.1955 14.4688 60.6619 13.6643L60.5949 13.6062Z" fill="white"></path> <path d="M65.1706 27.7511C65.0702 27.7022 64.9699 27.6532 64.8695 27.6043C64.9243 27.5003 64.9819 27.3045 65.0336 27.3045C65.3926 27.3198 65.4383 27.485 65.1706 27.7511Z" fill="white"></path> <path d="M67.1208 1.38231C66.99 1.58115 66.8621 1.78001 66.7313 1.9819C66.7495 1.86872 66.7283 1.7188 66.7922 1.64844C66.8865 1.5475 67.0417 1.50468 67.1725 1.43433L67.1208 1.38231Z" fill="white"></path> <path d="M64.3796 7.01398C64.4252 6.87938 64.4678 6.74783 64.5134 6.61323C64.4556 6.73253 64.401 6.85491 64.3432 6.97421L64.3796 7.01398Z" fill="white"></path> <path d="M60.6619 13.6643C60.7197 13.4226 60.7745 13.181 60.8323 12.9424C60.9175 12.9821 60.9995 13.0219 61.0847 13.0647C60.9204 13.2452 60.7562 13.4257 60.592 13.6092C60.595 13.6062 60.6619 13.6643 60.6619 13.6643Z" fill="white"></path> <path d="M48.5048 109.375L48.4439 109.433C48.4439 109.43 48.5048 109.375 48.5048 109.375Z" fill="white"></path> <path d="M74.6413 132.81C74.3189 132.816 73.9933 132.819 73.6709 132.825L73.6192 132.871C73.969 132.868 74.3219 132.868 74.6718 132.865L74.6413 132.81Z" fill="white"></path> </g> </svg> 