<?xml version="1.0" encoding="UTF-8"?> <svg xmlns="http://www.w3.org/2000/svg" width="32" height="32" viewBox="0 0 32 32" fill="none"> <path d="M5.33338 26.6665V18.6665C5.33338 12.7755 10.109 7.99984 16 7.99984C21.8911 7.99984 26.6667 12.7755 26.6667 18.6665V26.6665H28V29.3332H4.00005V26.6665H5.33338ZM8.00005 18.6665H10.6667C10.6667 15.721 13.0545 13.3332 16 13.3332V10.6665C11.5818 10.6665 8.00005 14.2482 8.00005 18.6665ZM14.6667 2.6665H17.3334V6.6665H14.6667V2.6665ZM26.371 6.40998L28.2566 8.29561L25.4282 11.124L23.5426 9.23841L26.371 6.40998ZM3.74353 8.29561L5.62914 6.40998L8.45757 9.23841L6.57196 11.124L3.74353 8.29561Z" fill="white"></path> </svg> 