<?xml version="1.0" encoding="UTF-8"?> <svg xmlns="http://www.w3.org/2000/svg" width="122" height="136" viewBox="0 0 122 136" fill="none"> <g clip-path="url(#clip0_80_784)"> <path d="M64.6138 2.62911C66.257 2.90209 68.2752 2.60854 69.6684 3.25921C82.5205 9.86607 92.1608 20.8653 96.5027 38.9497C97.8455 44.7276 98.3677 51.5918 98.1081 59.025C98.0052 66.8335 95.7681 76.4884 87.4148 88.3413C79.0615 100.194 71.7884 103.528 64.9994 105.824C56.8104 108.551 50.3944 107.834 44.4784 106.362C43.1716 106.04 41.7944 105.672 39.3465 106.767C39.6712 111.328 39.9254 115.842 40.266 120.685C36.3884 124.093 35.8703 122.121 35.3294 120.948C32.4367 114.144 29.669 107.151 27.2218 99.8271C26.0924 96.635 28.936 91.7273 33.0727 89.3052C42.6051 83.9366 50.4508 82.3404 56.969 83.6678C57.1099 83.761 56.9462 84.4675 56.9234 85.2672C51.5864 92.87 49.5799 88.554 44.4203 93.2866C52.6225 96.8152 60.9566 99.0731 73.3527 93.9706C74.8778 93.3505 76.5824 92.3062 78.3417 91.0263C83.2284 87.4712 86.7606 82.7477 88.1247 76.8606C89.6525 70.267 90.6485 63.8646 90.6284 58.6907C90.5475 46.4148 87.5981 37.4005 83.1326 30.3703C78.0171 22.6381 71.9561 16.1812 66.2702 9.15779C65.2521 7.94058 64.0385 6.86557 62.9499 5.60172C63.3795 4.7997 63.9341 3.80882 64.6138 2.62911Z" fill="white"></path> </g> <defs> <clipPath id="clip0_80_784"> <rect width="118.121" height="66.361" fill="white" transform="translate(121.384 37.0913) rotate(123.505)"></rect> </clipPath> </defs> </svg> 